<svg xmlns="http://www.w3.org/2000/svg" viewBox="0 0 32 32" width="32" height="32">
  <g fill="none" stroke="#D4AF37" stroke-width="2.5" stroke-linecap="round" stroke-linejoin="round">
    <!-- Outer rotated diamond petals -->
    <path d="M16 2.5 L29.5 16 L16 29.5 L2.5 16 Z" stroke-width="2.6" />
    <path d="M16 5.5 C10 5.5 5.5 10 5.5 16 C5.5 22 10 26.5 16 26.5 C22 26.5 26.5 22 26.5 16 C26.5 10 22 5.5 16 5.5 Z" stroke-width="2.2" />
    <!-- Inner S-shaped interlocking loops -->
    <path d="M11 11 C11 8.5 13.5 8.5 16 11 C18.5 13.5 21 13.5 21 16 C21 18.5 18.5 21 16 21 C13.5 21 11 18.5 11 16" stroke-width="2.2" />
    <path d="M21 11 C21 8.5 18.5 8.5 16 11 C13.5 13.5 11 13.5 11 16 C11 18.5 13.5 21 16 21 C18.5 21 21 18.5 21 16" stroke-width="2.2" />
  </g>
</svg>